[Header]
FileType HTR
DataType HTRS
FileVersion 1
NumSegments 22
NumFrames 8
DataFrameRate 24
EulerRotationOrder ZYX
CalibrationUnits mm
RotationUnits Degrees
GlobalAxisofGravity Y
BoneLengthAxis Y
ScaleFactor 1.0
[SegmentNames&Hierarchy]
reference	GLOBAL
Hips	reference
Spine	Hips
Spine1	Spine
Neck	Spine1
Head	Neck
LeftShoulder	Spine1
LeftArm	LeftShoulder
LeftForeArm	LeftArm
LeftHand	LeftForeArm
RightShoulder	Spine1
RightArm	RightShoulder
RightForeArm	RightArm
RightHand	RightForeArm
LeftUpLeg	Hips
LeftLeg	LeftUpLeg
LeftFoot	LeftLeg
LeftToeBase	LeftFoot
RightUpLeg	Hips
RightLeg	RightUpLeg
RightFoot	RightLeg
RightToeBase	RightFoot
[BasePosition]
reference	0	0	0	0	0	0	1
Hips	0	0	0	0	0	0	1
Spine	0	0	0	0	-0	90	1
Spine1	0	0	0	0	0	0	1
Neck	0	0	0	-7.352430803	-7.352430803	90	1
Head	0	0	0	0	-0	90	1
LeftShoulder	0	0	0	0	0	0	1
LeftArm	0	0	0	0	0	0	1
LeftForeArm	0	0	0	0	0	0	1
LeftHand	0	0	0	0	0	0	1
RightShoulder	0	0	0	0	-0	180	1
RightArm	0	0	0	0	-0	180	1
RightForeArm	0	0	0	0	-0	180	1
RightHand	0	0	0	0	-0	180	1
LeftUpLeg	0	0	0	0	-0	-90	1
LeftLeg	0	0	0	0	-0	-90	1
LeftFoot	0	0	0	66.57150701	-66.57150701	-90	1
LeftToeBase	0	0	0	0	-90	0	1
RightUpLeg	0	0	0	0	-0	-90	1
RightLeg	0	0	0	0	-0	-90	1
RightFoot	0	0	0	66.57150701	-66.57150701	-90	1
RightToeBase	0	0	0	0	-90	0	1
[reference]
19	0	0	0	0	-0	0	1.0
20	0	0	0	0	-0	0	1.0
21	0	0	0	0	-0	0	1.0
22	0	0	0	0	-0	0	1.0
23	0	0	0	0	-0	0	1.0
24	0	0	0	0	-0	0	1.0
25	0	0	0	0	-0	0	1.0
26	0	0	0	0	-0	0	1.0
[Hips]
19	0.438893497	8.379309654	0.2787799835	-11.66822815	-106.488945	9.125137329	1.0
20	0.462487936	8.379309654	0.2787799835	-9.999638557	-107.0600052	7.625007153	1.0
21	0.4860941768	8.376769066	0.2787799835	-7.556643963	-107.7006836	4.970627308	1.0
22	0.5102652311	8.324421883	0.2787799835	-5.429448128	-107.9994736	2.387166977	1.0
23	0.5432493687	8.259898186	0.2787799835	-6.48197794	-107.8947067	3.106939554	1.0
24	0.5752881765	8.165517807	0.2787799835	-10.40887547	-108.2690887	6.716187954	1.0
25	0.606400013	8.147414207	0.2787799835	-12.06169128	-109.4801788	8.375915527	1.0
26	0.6207869649	8.142086029	0.2787799835	-12.23519707	-111.0604095	7.733546257	1.0
[Spine]
19	0	0.7478299737	0	-6.175453663	0.9276416302	-87.78023529	1.0
20	0	0.7478299737	0	-5.772245407	1.178578734	-88.13021851	1.0
21	0	0.7478299737	0	-5.217232227	1.533034801	-88.73879242	1.0
22	0	0.7478299737	0	-4.523676395	1.653281808	-89.14871216	1.0
23	0	0.7478299737	0	-3.48775053	1.621661186	-88.39177704	1.0
24	0	0.7478299737	0	-2.875214338	1.783939958	-86.89055634	1.0
25	0	0.7478299737	0	-3.240174294	2.198362589	-86.50778961	1.0
26	0	0.7478299737	0	-3.315428495	2.589692116	-86.83779144	1.0
[Spine1]
19	0	2.049309969	0	10.06873703	0.4106477797	-1.61603725	1.0
20	0	2.049309969	0	9.860635757	0.5025823116	-1.637461424	1.0
21	0	2.049309969	0	9.899886131	0.6549928188	-1.882442594	1.0
22	0	2.049309969	0	9.959342003	0.7473161817	-2.351703167	1.0
23	0	2.049309969	0	9.45768261	0.7544720769	-2.816476107	1.0
24	0	2.049309969	0	9.897116661	0.8171980977	-2.780707836	1.0
25	0	2.049309969	0	11.17177963	0.8875230551	-1.916054487	1.0
26	0	2.049309969	0	11.9249773	0.9456607699	-1.153970599	1.0
[Neck]
19	0	2.231709957	0	0.886495471	6.617753029	-84.96546936	1.0
20	0	2.231709957	0	0.9388855696	6.556669235	-84.87042236	1.0
21	0	2.231709957	0	0.5156865716	6.640906334	-84.91693878	1.0
22	0	2.231709957	0	0.09554253519	6.714417458	-85.09925842	1.0
23	0	2.231709957	0	-0.0542191267	6.572963715	-85.48817444	1.0
24	0	2.231709957	0	-0.9708871245	6.533329964	-85.69003296	1.0
25	0	2.231709957	0	-2.439851522	6.779246807	-85.83434296	1.0
26	0	2.231709957	0	-2.303023815	7.153627396	-85.55673981	1.0
[Head]
19	0	1.413589954	0.1823999882	-6.955581188	-0.0941907391	-94.31723022	1.0
20	0	1.413589954	0.1823999882	-8.214407921	-0.159496069	-94.81375122	1.0
21	0	1.413589954	0.1823999882	-8.756262779	-0.1186867282	-94.82003784	1.0
22	0	1.413589954	0.1823999882	-9.157396317	-0.0965096429	-94.72504425	1.0
23	0	1.413589954	0.1823999882	-9.783220291	-0.2894812226	-94.87254333	1.0
24	0	1.413589954	0.1823999882	-10.4004879	-0.385104984	-95.39060211	1.0
25	0	1.413589954	0.1823999882	-9.879719734	-0.1516758204	-95.9240036	1.0
26	0	1.413589954	0.1823999882	-10.05305862	0.2583527267	-96.21376038	1.0
[LeftShoulder]
19	0.3649300039	1.825889945	-0.04271000251	-9.834810257	-8.659785271	3.945560932	1.0
20	0.3649300039	1.825889945	-0.04271000251	-9.694321632	-8.695558548	3.97123313	1.0
21	0.3649300039	1.825889945	-0.04271000251	-9.695706367	-8.789777756	3.980692863	1.0
22	0.3649300039	1.825889945	-0.04271000251	-9.744810104	-8.828462601	4.003678322	1.0
23	0.3649300039	1.825889945	-0.04271000251	-9.550517082	-9.085705757	3.947962761	1.0
24	0.3649300039	1.825889945	-0.04271000251	-10.36518669	-9.254665375	4.209373951	1.0
25	0.3649300039	1.825889945	-0.04271000251	-10.70427227	-8.90007019	4.951004982	1.0
26	0.3649300039	1.825889945	-0.04271000251	-10.04396629	-8.833185196	5.946598053	1.0
[LeftArm]
19	1.24003005	0	0	43.55221558	8.562182426	-80.28661346	1.0
20	1.24003005	0	0	42.44520187	9.055034637	-79.76771545	1.0
21	1.24003005	0	0	41.3245697	9.68391037	-79.06031799	1.0
22	1.24003005	0	0	40.03717804	10.36700821	-78.24588013	1.0
23	1.24003005	0	0	38.46011353	11.07057381	-77.38471985	1.0
24	1.24003005	0	0	37.29065704	12.2188139	-77.03253174	1.0
25	1.24003005	0	0	36.05470657	13.05672359	-77.30654907	1.0
26	1.24003005	0	0	33.40634537	14.66464996	-77.37025452	1.0
[LeftForeArm]
19	2.847419977	0	0	-11.84796238	-13.20915127	-5.221548557	1.0
20	2.847419977	0	0	-11.28714371	-13.5643692	-5.625063896	1.0
21	2.847419977	0	0	-10.76414394	-13.97851467	-6.051346302	1.0
22	2.847419977	0	0	-10.09504509	-14.47927094	-6.769267082	1.0
23	2.847419977	0	0	-8.889484406	-15.04893494	-7.802126884	1.0
24	2.847419977	0	0	-7.008051872	-15.08460522	-9.4777174	1.0
25	2.847419977	0	0	-4.357227325	-14.62778091	-11.53981876	1.0
26	2.847419977	0	0	-1.536494136	-14.15553474	-14.26751518	1.0
[LeftHand]
19	2.258270025	0	0	-12.39480114	-3.914521933	-1.702585578	1.0
20	2.258270025	0	0	-11.90381336	-3.947860479	-1.534521699	1.0
21	2.258270025	0	0	-11.4641695	-4.02433157	-1.211533189	1.0
22	2.258270025	0	0	-10.92556572	-4.263989925	-0.8172884583	1.0
23	2.258270025	0	0	-9.895008087	-4.475224972	-0.6830530763	1.0
24	2.258270025	0	0	-8.263368607	-4.732916832	-0.0590890348	1.0
25	2.258270025	0	0	-5.883284569	-4.946650982	0.9220947623	1.0
26	2.258270025	0	0	-3.335677624	-4.912489891	0.4339670837	1.0
[RightShoulder]
19	-0.3646599948	1.825889945	-0.04271000251	-7.23411274	8.993494987	177.7911377	1.0
20	-0.3646599948	1.825889945	-0.04271000251	-7.157154083	9.094327927	177.8109436	1.0
21	-0.3646599948	1.825889945	-0.04271000251	-7.274776936	9.24106884	177.843399	1.0
22	-0.3646599948	1.825889945	-0.04271000251	-7.328447342	9.493762016	177.7274017	1.0
23	-0.3646599948	1.825889945	-0.04271000251	-7.364571571	9.984643936	177.5374908	1.0
24	-0.3646599948	1.825889945	-0.04271000251	-8.033589363	10.70424652	177.4770508	1.0
25	-0.3646599948	1.825889945	-0.04271000251	-8.970458984	11.37000084	177.0267792	1.0
26	-0.3646599948	1.825889945	-0.04271000251	-8.821697235	11.89093494	177.1604919	1.0
[RightArm]
19	-1.24003005	0	0	48.70233154	-2.285854101	-98.42874146	1.0
20	-1.24003005	0	0	50.70259857	-1.257009268	-98.50709534	1.0
21	-1.24003005	0	0	53.53970337	-0.1840309203	-98.37963104	1.0
22	-1.24003005	0	0	56.4677887	1.075824261	-97.98767853	1.0
23	-1.24003005	0	0	58.54138947	2.052594662	-98.11412048	1.0
24	-1.24003005	0	0	60.78979874	2.9479568	-99.24703217	1.0
25	-1.24003005	0	0	62.65912628	4.690907001	-100.2576447	1.0
26	-1.24003005	0	0	62.98017883	7.108095169	-101.7883911	1.0
[RightForeArm]
19	-2.847419977	0	0	0.4471193552	21.84484863	178.8669586	1.0
20	-2.847419977	0	0	0.3876225054	23.36359787	178.2701721	1.0
21	-2.847419977	0	0	0.1988120973	24.59536552	177.4818268	1.0
22	-2.847419977	0	0	0.06779761612	25.40885544	177.0063477	1.0
23	-2.847419977	0	0	0.5742516518	26.91037941	177.2179871	1.0
24	-2.847419977	0	0	0.6999996305	29.06902695	177.5325928	1.0
25	-2.847419977	0	0	1.605418444	31.32420349	178.4977264	1.0
26	-2.847419977	0	0	3.716375113	35.61667633	179.6149902	1.0
[RightHand]
19	-2.258270025	0	0	0.1884942949	10.37318039	174.733551	1.0
20	-2.258270025	0	0	0.2226825953	10.77675056	174.4631958	1.0
21	-2.258270025	0	0	0.2026171386	11.24981117	174.4659424	1.0
22	-2.258270025	0	0	0.1428277194	11.47918701	174.0348511	1.0
23	-2.258270025	0	0	0.6773102283	11.80541325	174.5558472	1.0
24	-2.258270025	0	0	0.7504036427	12.78017235	174.7368469	1.0
25	-2.258270025	0	0	1.48387444	13.79370594	175.5124664	1.0
26	-2.258270025	0	0	3.309133053	14.73809147	175.9217377	1.0
[LeftUpLeg]
19	0.9119900465	0	0	10.52370548	5.626141548	93.67657471	1.0
20	0.9119900465	0	0	9.079645157	5.62334919	93.57157898	1.0
21	0.9119900465	0	0	6.821465492	5.853189945	93.18939209	1.0
22	0.9119900465	0	0	2.319805622	5.314865112	92.62210083	1.0
23	0.9119900465	0	0	-4.310644627	3.802602291	93.76196289	1.0
24	0.9119900465	0	0	-10.87952995	4.546161652	96.1423111	1.0
25	0.9119900465	0	0	-16.34355545	5.399711132	97.73447418	1.0
26	0.9119900465	0	0	-18.79539299	6.355190277	97.2993927	1.0
[LeftLeg]
19	0	-4.371409893	0	4.606238842	-0.1321614087	87.03999329	1.0
20	0	-4.371409893	0	7.164287567	-0.5888363719	86.45355225	1.0
21	0	-4.371409893	0	12.43757725	-1.565838456	85.58214569	1.0
22	0	-4.371409893	0	22.97730827	-1.541792154	84.6539917	1.0
23	0	-4.371409893	0	37.71579742	-2.008885622	80.31225586	1.0
24	0	-4.371409893	0	52.69736481	-4.792616844	71.42906952	1.0
25	0	-4.371409893	0	63.94097519	-4.290222645	65.32170105	1.0
26	0	-4.371409893	0	71.61367798	-4.933740616	64.05924225	1.0
[LeftFoot]
19	0	-3.918009996	0	-101.2736282	115.485611	-37.33029175	1.0
20	0	-3.918009996	0	-100.1854858	115.7249298	-34.78804398	1.0
21	0	-3.918009996	0	-98.13226318	115.4015884	-30.34545898	1.0
22	0	-3.918009996	0	-95.06269836	113.2100372	-25.21408844	1.0
23	0	-3.918009996	0	-84.99578094	112.6217117	-14.53914928	1.0
24	0	-3.918009996	0	-68.01783752	116.2377625	1.10729301	1.0
25	0	-3.918009996	0	-56.54748535	116.8483429	8.379394531	1.0
26	0	-3.918009996	0	-49.8792038	113.1608276	10.29889488	1.0
[LeftToeBase]
19	0	-0.5927900076	1.367989898	0	0	0	1.0
20	0	-0.5927900076	1.367989898	0	0	0	1.0
21	0	-0.5927900076	1.367989898	0	0	0	1.0
22	0	-0.5927900076	1.367989898	0	0	0	1.0
23	0	-0.5927900076	1.367989898	0	0	0	1.0
24	0	-0.5927900076	1.367989898	0	0	0	1.0
25	0	-0.5927900076	1.367989898	0	0	0	1.0
26	0	-0.5927900076	1.367989898	0	0	0	1.0
[RightUpLeg]
19	-0.9119900465	0	0	5.568992138	-12.78096581	94.26190186	1.0
20	-0.9119900465	0	0	2.247303963	-14.32194519	95.4440155	1.0
21	-0.9119900465	0	0	-0.9071510434	-16.37474823	96.4034729	1.0
22	-0.9119900465	0	0	-3.119844437	-20.37650681	97.04412842	1.0
23	-0.9119900465	0	0	-4.590017796	-22.69647789	97.76976776	1.0
24	-0.9119900465	0	0	-6.039687157	-22.33107567	98.81750488	1.0
25	-0.9119900465	0	0	-7.398044109	-21.8205452	99.9101181	1.0
26	-0.9119900465	0	0	-6.28205204	-20.35006142	99.0153656	1.0
[RightLeg]
19	0	-4.371409893	0	9.280897141	-4.676924706	86.18499756	1.0
20	0	-4.371409893	0	14.9162693	-5.148779869	83.42663574	1.0
21	0	-4.371409893	0	20.63685226	-6.085615635	80.20592499	1.0
22	0	-4.371409893	0	24.40344429	-6.099508286	76.93972778	1.0
23	0	-4.371409893	0	27.18471527	-4.386148453	75.48933411	1.0
24	0	-4.371409893	0	31.21392822	-1.838667631	76.5161438	1.0
25	0	-4.371409893	0	33.57919693	-1.936267257	75.25653076	1.0
26	0	-4.371409893	0	33.32131195	-1.347306967	77.21038055	1.0
[RightFoot]
19	0	-3.918009996	0	49.7767334	72.19650269	107.361557	1.0
20	0	-3.918009996	0	47.43970108	71.81658936	106.8569183	1.0
21	0	-3.918009996	0	47.05513	71.56825256	108.146904	1.0
22	0	-3.918009996	0	51.77136993	70.72594452	114.8034286	1.0
23	0	-3.918009996	0	53.1540451	70.24926758	118.7276001	1.0
24	0	-3.918009996	0	43.37979889	70.44400787	111.0771027	1.0
25	0	-3.918009996	0	46.18752289	70.68354797	115.4424362	1.0
26	0	-3.918009996	0	42.77295303	71.19229126	111.2407532	1.0
[RightToeBase]
19	0	-0.5927900076	1.367989898	0	0	0	1.0
20	0	-0.5927900076	1.367989898	0	0	0	1.0
21	0	-0.5927900076	1.367989898	0	0	0	1.0
22	0	-0.5927900076	1.367989898	0	0	0	1.0
23	0	-0.5927900076	1.367989898	0	0	0	1.0
24	0	-0.5927900076	1.367989898	0	0	0	1.0
25	0	-0.5927900076	1.367989898	0	0	0	1.0
26	0	-0.5927900076	1.367989898	0	0	0	1.0
[EndOfFile]
